<svg width="560" height="583" viewBox="0 0 560 583" fill="none" xmlns="http://www.w3.org/2000/svg">
  <g clip-path="url(#clip0_102:62)">
    <path d="M268.901 284.886C270.666 287.82 273.446 290.004 276.715 291.023C279.984 292.042 283.513 291.826 286.633 290.414C289.752 289.003 292.245 286.496 293.638 283.368C295.03 280.24 295.226 276.709 294.188 273.447L348.181 162.521L322.336 146.854L275.707 264.679C275.528 264.749 275.353 264.821 275.18 264.897C275.007 264.973 274.835 265.052 274.663 265.135C274.492 265.217 274.322 265.304 274.153 265.396C273.984 265.487 273.816 265.583 273.65 265.683C270.474 267.6 268.19 270.7 267.299 274.301C266.408 277.901 266.984 281.709 268.9 284.885L268.901 284.886Z" fill="#9E616A" />
    <path d="M337.874 205.295L299.517 195.463C299.517 195.463 300.769 192.632 302.804 187.942C304.84 183.252 307.684 176.712 310.883 169.287C314.082 161.861 317.631 153.565 321.098 145.364C324.565 137.162 327.936 129.06 330.776 122.036C333.616 115.013 336.841 110.806 340.084 108.449C342.767 106.41 346.147 105.511 349.489 105.949C352.086 106.336 354.569 107.281 356.766 108.719C357.806 109.366 358.784 110.108 359.687 110.936L368.581 127.109L337.874 205.295Z" fill="#CCCCCC" />
    <path d="M375.99 504.061L352.517 503.969L360.086 565.304L375.99 565.383V504.061Z" fill="#9E616A" />
    <path d="M380.046 580.817L328.792 580.546V579.898C328.792 578.583 328.92 577.27 329.175 575.98C329.679 573.434 330.684 571.014 332.13 568.86C333.6 566.676 335.483 564.803 337.674 563.344C339.835 561.907 342.26 560.913 344.808 560.42C346.1 560.172 347.413 560.051 348.729 560.059V560.059L380.046 560.213V580.817Z" fill="#2F2E41" />
    <path d="M300.832 503.769L277.426 503.678L284.971 564.929L300.832 565.009V503.769Z" fill="#9E616A" />
    <path d="M304.876 580.418L253.758 580.15V579.502C253.758 578.189 253.886 576.878 254.141 575.59C254.643 573.048 255.645 570.631 257.088 568.479C258.552 566.298 260.431 564.426 262.617 562.969C264.773 561.534 267.192 560.543 269.734 560.052C271.023 559.804 272.333 559.683 273.645 559.691V559.691L304.876 559.844V580.418Z" fill="#2F2E41" />
    <path d="M16.4977 55.8371C10.2556 57.5791 4.59419 64.1116 2.99737 70.9343C2.27155 74.2731 1.69089 89.2251 1.83605 104.322C1.98122 129.436 2.27155 132.339 5.02969 136.984C11.417 148.017 17.6591 149.614 55.2568 150.34C71.9508 150.775 73.9831 150.485 77.7574 147.727C85.4512 141.92 86.6125 138.146 87.7738 113.613C88.9352 87.1928 87.919 76.4506 83.5641 70.0633C78.1929 62.0792 72.967 60.0469 51.7729 57.8695C41.1758 56.7081 29.8529 55.4017 26.6593 55.1113C23.4657 54.821 18.8204 55.1113 16.4977 55.8371Z" fill="#E4E4E4" />
    <path d="M119.275 68.1763C116.371 69.6279 113.468 72.8215 111.581 76.741C108.678 82.6928 108.532 85.1606 108.968 111.435C109.403 137.275 109.694 140.033 112.452 143.662C118.839 152.227 120.581 152.808 145.985 153.824C172.986 154.985 175.018 154.404 179.954 143.807C182.276 138.581 182.712 134.081 182.712 113.032C182.712 75.2893 180.679 72.5312 151.937 69.3376C142.066 68.3214 131.759 67.0149 129.001 66.7246C125.952 66.2891 122.033 66.8698 119.275 68.1763Z" fill="#6C63FF" />
    <path d="M210.729 77.7572C208.842 78.6281 206.084 82.1121 204.342 85.5961C201.583 91.4027 201.438 93.8705 201.874 118.403C202.309 143.662 202.454 145.259 205.793 149.759C207.68 152.372 210.729 155.13 212.471 155.856C214.213 156.582 224.374 157.598 234.826 158.179C264.875 159.775 265.892 158.614 266.617 121.162C267.488 82.8379 265.601 80.3701 234.536 77.612C213.197 75.7248 214.793 75.7248 210.729 77.7572Z" fill="#6C63FF" />
    <path d="M11.5621 176.469C1.9812 183.002 1.25537 186.196 1.25537 220.454C1.25537 254.423 1.9812 257.181 11.7073 263.278C16.2074 266.036 18.53 266.327 43.3533 265.891C73.6928 265.456 76.8864 264.585 82.8382 255.004C86.0318 249.633 86.177 248.471 86.177 218.713C86.177 189.825 86.0318 187.792 83.1285 183.873C76.4509 175.018 72.8218 174.002 43.3533 173.566C17.2235 172.985 16.3525 173.131 11.5621 176.469Z" fill="#E4E4E4" />
    <path d="M116.807 178.937C108.242 184.744 107.371 188.373 107.226 220.454C107.226 246.729 107.516 249.923 110.129 254.133C115.5 262.988 117.388 263.569 144.824 262.988L169.647 262.552L175.018 257.181L180.389 251.81L181.551 232.503C183.293 207.099 182.567 192.583 179.083 186.776C174.292 178.502 170.373 177.34 144.533 176.615C122.613 176.034 120.726 176.179 116.807 178.937Z" fill="#E4E4E4" />
    <path d="M207.68 182.712C200.858 188.518 199.841 193.889 200.422 224.374L200.858 251.665L205.648 256.31L210.438 261.101L231.633 260.665C246.149 260.375 254.278 259.504 256.891 258.197C263.714 254.568 265.456 248.326 266.472 223.067C267.343 196.938 266.327 190.55 259.649 184.163L255.149 179.808L233.665 179.373L212.326 178.792L207.68 182.712Z" fill="#E4E4E4" />
    <path d="M223.068 282.004C212.325 282.73 210.003 283.456 206.519 286.505C199.551 293.037 198.68 297.247 198.68 325.119C198.68 364.749 199.986 366.2 232.213 362.861C263.714 359.523 264.44 358.652 265.166 321.054C266.037 279.972 265.166 279.246 223.068 282.004Z" fill="#E4E4E4" />
    <path d="M141.049 285.053C118.694 286.214 114.049 288.101 109.113 298.118C105.92 304.07 105.774 306.392 105.774 332.377C105.774 358.797 105.92 360.394 109.113 365.039C114.92 373.749 117.533 374.184 143.517 371.717C168.631 369.249 171.679 368.233 177.196 359.232C180.244 354.442 180.534 352.119 180.97 326.861C181.405 301.166 181.26 299.279 178.357 294.053C172.841 284.327 169.502 283.456 141.049 285.053Z" fill="#E4E4E4" />
    <path d="M37.5467 289.408C15.0461 290.569 10.546 292.166 4.44902 301.311C0.529561 307.263 0.529561 307.408 0.0940654 337.167C-0.34143 370.846 0.384396 374.184 9.9653 380.572C14.7557 383.765 15.9171 383.91 28.8368 383.039C54.531 381.152 71.0798 378.394 75.1445 375.491C77.1768 373.894 80.3704 369.829 82.2576 366.2C85.4512 360.103 85.5964 358.652 85.1609 329.764C84.7254 300.15 84.7254 299.715 81.0962 295.795C76.451 290.714 69.483 287.956 62.6603 288.247C59.6118 288.247 48.2889 288.827 37.5467 289.408Z" fill="#E4E4E4" />
    <path d="M299.838 253.079L260.479 399.963L274.885 540.762L306.784 541.642L299.839 414.508L339.633 351.063L348.264 542.507L377.2 540.461L393.297 375.858C398.764 363.005 402.773 349.58 405.25 335.834C407.196 325.045 408.143 314.098 408.077 303.135C408.044 295.754 407.477 288.385 406.38 281.086C405.988 278.365 405.457 275.667 404.79 273.001L393.055 261.105L299.838 253.079Z" fill="#2F2E41" />
    <path d="M351.985 277.645C345.366 277.645 339.155 277.433 333.524 277.014C327.771 276.619 322.048 275.866 316.389 274.758C311.571 273.858 306.879 272.381 302.414 270.358C298.82 268.806 295.695 266.34 293.35 263.205L293.081 262.814L303.839 192.801L315.441 114.08C316.204 108.87 318.857 104.123 322.893 100.743C326.93 97.3623 332.068 95.584 337.331 95.7466L373.664 96.8598C376.389 96.9434 379.069 97.5731 381.545 98.7117C384.022 99.8503 386.245 101.474 388.082 103.488C389.92 105.502 391.334 107.864 392.241 110.434C393.149 113.004 393.531 115.731 393.366 118.452L388.596 196.741L406.189 273.965L404.943 274.139C404.442 274.206 402.511 274.46 399.487 274.801C395.534 275.245 391.497 275.645 387.489 275.991C381.819 276.48 376.271 276.864 370.999 277.134C364.312 277.475 357.903 277.64 351.985 277.645Z" fill="#CCCCCC" />
    <path d="M331.823 81.8351C331.814 81.8351 331.804 81.8351 331.794 81.8351C331.032 81.8346 330.277 81.684 329.573 81.3919C328.869 81.0997 328.23 80.6718 327.691 80.1324C327.153 79.5931 326.725 78.9529 326.434 78.2485C326.143 77.5441 325.993 76.7892 325.994 76.027V43.6341C325.988 37.8306 327.149 32.0852 329.409 26.7395C333.833 16.3076 342.112 7.98539 352.521 3.50718C359.104 0.683572 366.284 -0.463315 373.42 0.169216C380.555 0.801746 387.422 3.19394 393.405 7.1316C399.389 11.0693 404.303 16.4295 407.707 22.7322C411.11 29.0349 412.898 36.0834 412.909 43.2465V75.6888C412.91 76.4695 412.754 77.2424 412.449 77.9614C411.853 79.364 410.738 80.4819 409.336 81.0816C408.617 81.3884 407.844 81.5477 407.063 81.5498L331.819 81.8351H331.823Z" fill="#2F2E41" />
    <path d="M389.074 32.5247C392.105 38.0605 393.427 44.3703 392.874 50.6572C392.321 56.9441 389.917 62.9261 385.966 67.8478C382.016 72.7694 376.695 76.4098 370.676 78.3093C364.658 80.2087 358.211 80.2821 352.151 78.52C348.138 77.3668 344.394 75.4288 341.136 72.8183C337.877 70.2077 335.169 66.9765 333.168 63.3118C330.144 57.7785 328.827 51.4737 329.381 45.1926C329.936 38.9114 332.338 32.9351 336.284 28.017C340.23 23.0989 345.544 19.4594 351.556 17.5573C357.568 15.6551 364.008 15.5756 370.065 17.3286C374.082 18.4775 377.83 20.4125 381.093 23.0213C384.356 25.6301 387.069 28.8608 389.074 32.526V32.5247Z" fill="#9E616A" />
    <path d="M315.72 46.2704C315.716 41.6805 316.634 37.1366 318.421 32.9088C321.919 24.6597 328.466 18.0793 336.697 14.5396C340.921 12.7301 345.465 11.7885 350.059 11.7709L356.542 11.7384C356.615 11.738 356.688 11.7378 356.761 11.7379C361.25 11.7406 365.695 12.6276 369.842 14.3482C373.989 16.0688 377.756 18.5893 380.928 21.7657C384.101 24.9422 386.617 28.7124 388.332 32.8612C390.048 37.0099 390.929 41.4559 390.926 45.9454V46.5942L377.211 46.6495L372.534 33.584L371.599 46.6748L364.515 46.7061L362.157 40.1144L361.684 46.7145L315.726 46.9204L315.72 46.2704Z" fill="#2F2E41" />
    <path d="M260.504 114.415C258.393 114.931 256.42 115.898 254.719 117.25C253.389 118.302 252.252 119.576 251.359 121.017C249.597 123.868 248.821 127.219 249.149 130.554C249.315 132.239 249.772 133.882 250.5 135.411C251.397 137.316 252.688 139.009 254.288 140.378C255.888 141.748 257.76 142.762 259.78 143.355C261.801 143.948 263.924 144.105 266.01 143.816C268.096 143.528 270.097 142.8 271.881 141.681C272.013 141.597 272.143 141.51 272.272 141.423C272.401 141.336 272.527 141.246 272.652 141.156C272.777 141.064 272.9 140.972 273.021 140.878C273.141 140.784 273.261 140.688 273.38 140.592L349.063 167.528C351.392 168.356 353.927 168.405 356.286 167.669C358.645 166.932 360.701 165.448 362.144 163.442L380.087 138.599L358.394 123.991L347.01 136.923L277.748 123.145C277.672 122.966 277.594 122.787 277.513 122.61C277.432 122.432 277.347 122.255 277.259 122.079C277.17 121.903 277.078 121.729 276.983 121.555C276.888 121.381 276.787 121.209 276.682 121.038C275.029 118.368 272.574 116.289 269.668 115.099C266.762 113.91 263.554 113.67 260.504 114.415Z" fill="#9E616A" />
    <path d="M348.231 128.768C350.495 125.942 353.661 122.274 356.877 118.635C360.093 114.997 363.356 111.391 365.818 108.693C368.28 105.995 369.937 104.207 369.937 104.207C372.209 100.771 375.601 98.228 379.536 97.0092C383.47 95.7904 387.706 95.9712 391.522 97.5211C395.339 99.0709 398.501 101.894 400.473 105.511C402.444 109.128 403.102 113.316 402.335 117.364C401.897 119.694 400.993 121.911 399.676 123.882C399.676 123.882 397.206 127.113 393.479 131.936C389.752 136.759 384.766 143.178 379.736 149.561C374.706 155.943 369.627 162.293 365.711 166.979C361.794 171.666 359.038 174.694 358.65 174.435L344.99 133.83C344.602 133.57 345.967 131.593 348.231 128.768Z" fill="#CCCCCC" />
    <path d="M356.339 80.8143C356.124 81.8615 356.208 82.9479 356.58 83.9501C356.766 84.463 357.024 84.9472 357.345 85.3885C357.62 85.7646 357.939 86.1068 358.294 86.4081C359.346 87.2975 360.681 87.7827 362.059 87.7768C362.145 87.776 362.231 87.7736 362.317 87.7695C362.403 87.7655 362.489 87.7595 362.574 87.7515C362.661 87.7443 362.747 87.7347 362.833 87.7226C362.919 87.7106 363.005 87.6969 363.092 87.6817L367.96 86.7969L374.665 72.4723V85.5932L396.797 81.6088V25.9294L359.694 26.1075L360.611 27.1729C363.656 30.7474 365.655 35.0927 366.389 39.7304C367.109 44.4277 367.019 49.2136 366.122 53.8804C365.25 58.6026 363.927 63.2301 362.171 67.6994C360.636 71.6588 358.874 75.5264 356.894 79.2831C356.638 79.765 356.451 80.2805 356.339 80.8143V80.8143Z" fill="#2F2E41" />
    <path d="M99.3426 582.5H557.971C558.29 582.5 558.596 582.373 558.822 582.147C559.048 581.922 559.175 581.616 559.175 581.296C559.175 580.977 559.048 580.671 558.822 580.445C558.596 580.219 558.29 580.093 557.971 580.093H99.3426C99.0233 580.093 98.7171 580.219 98.4914 580.445C98.2656 580.671 98.1388 580.977 98.1388 581.296C98.1388 581.616 98.2656 581.922 98.4914 582.147C98.7171 582.373 99.0233 582.5 99.3426 582.5V582.5Z" fill="#CACACA" />
  </g>
  <defs>
    <clipPath id="clip0_102:62">
      <rect width="559.174" height="582.5" fill="white" />
    </clipPath>
  </defs>
</svg>
  