<svg width="60" height="60" viewBox="0 0 60 60" fill="none" xmlns="http://www.w3.org/2000/svg">
    <path fill-rule="evenodd" clip-rule="evenodd" d="M6.53137 6.53138C5.875 7.18776 5.50625 8.078 5.50625 9.00626V16.0063C5.50625 16.9345 5.875 17.8248 6.53137 18.4811C7.18775 19.1375 8.07799 19.5063 9.00625 19.5063H16.0062C16.0594 19.5063 16.1125 19.505 16.1654 19.5026C16.3841 19.0569 16.6384 18.6227 16.928 18.2C17.6012 17.2175 18.4606 16.354 19.5062 15.6094V9.00626C19.5062 8.078 19.1375 7.18776 18.4811 6.53138C17.8247 5.875 16.9345 5.50626 16.0062 5.50626H9.00625C8.07799 5.50626 7.18775 5.875 6.53137 6.53138ZM37.0062 13.2755C34.9777 12.8465 32.909 12.632 30.8 12.632C27.8091 12.632 25.2111 13.025 23.0062 13.8111V9.00626C23.0062 8.078 23.375 7.18776 24.0314 6.53138C24.6878 5.875 25.578 5.50626 26.5062 5.50626H33.5062C34.4345 5.50626 35.3247 5.875 35.9811 6.53138C36.6375 7.18776 37.0062 8.078 37.0062 9.00626V13.2755ZM42.0748 18.9251L43.472 15.56C42.5618 15.0448 41.5732 14.5987 40.5062 14.2217V9.00626C40.5062 8.078 40.875 7.18776 41.5314 6.53138C42.1878 5.875 43.078 5.50626 44.0062 5.50626H51.0062C51.9345 5.50626 52.8247 5.875 53.4811 6.53138C54.1375 7.18776 54.5062 8.078 54.5062 9.00626V16.0063C54.5062 16.9345 54.1375 17.8248 53.4811 18.4811C52.8247 19.1375 51.9345 19.5063 51.0062 19.5063H44.0062C43.3143 19.5063 42.6434 19.3013 42.0748 18.9251ZM15.1934 23.0063C15.1658 23.3197 15.152 23.6376 15.152 23.96C15.152 26.392 15.792 28.328 17.072 29.768C17.8091 30.5788 18.6205 31.2623 19.5062 31.8185V33.5063C19.5062 34.4345 19.1375 35.3248 18.4811 35.9811C18.4394 36.0229 18.3967 36.0634 18.3531 36.1028C18.326 36.0873 18.299 36.0717 18.272 36.056L18.1901 36.2414C17.573 36.7342 16.8036 37.0063 16.0062 37.0063H9.00625C8.07799 37.0063 7.18775 36.6375 6.53137 35.9811C5.875 35.3248 5.50625 34.4345 5.50625 33.5063V26.5063C5.50625 25.578 5.875 24.6878 6.53137 24.0314C7.18775 23.375 8.07799 23.0063 9.00625 23.0063H15.1934ZM16.3002 40.5186C16.2028 40.5104 16.1047 40.5063 16.0062 40.5063H9.00625C8.07799 40.5063 7.18775 40.875 6.53137 41.5314C5.875 42.1878 5.50625 43.078 5.50625 44.0063V51.0063C5.50625 51.9345 5.875 52.8248 6.53137 53.4811C7.18775 54.1375 8.07799 54.5063 9.00625 54.5063H16.0062C16.9345 54.5063 17.8247 54.1375 18.4811 53.4811C19.1375 52.8248 19.5062 51.9345 19.5062 51.0063V46.4235C17.5899 45.8492 15.9624 45.1454 14.624 44.312L16.3002 40.5186ZM23.0062 47.2376V51.0063C23.0062 51.9345 23.375 52.8248 24.0314 53.4811C24.6878 54.1375 25.578 54.5063 26.5062 54.5063H33.5062C34.4345 54.5063 35.3247 54.1375 35.9811 53.4811C36.6375 52.8248 37.0062 51.9345 37.0062 51.0063V46.5938C34.8295 47.3766 32.2488 47.768 29.264 47.768C27.1409 47.768 25.0549 47.5912 23.0062 47.2376ZM40.5062 44.7925V51.0063C40.5062 51.9345 40.875 52.8248 41.5314 53.4811C42.1878 54.1375 43.078 54.5063 44.0062 54.5063H51.0062C51.9345 54.5063 52.8247 54.1375 53.4811 53.4811C54.1375 52.8248 54.5062 51.9345 54.5062 51.0063V44.0063C54.5062 43.078 54.1375 42.1878 53.4811 41.5314C52.8247 40.875 51.9345 40.5063 51.0062 40.5063H44.0803C43.8245 41.09 43.5097 41.6546 43.136 42.2C42.4552 43.1753 41.5786 44.0394 40.5062 44.7925ZM44.8976 37.0063H51.0062C51.9345 37.0063 52.8247 36.6375 53.4811 35.9811C54.1375 35.3248 54.5062 34.4345 54.5062 33.5063V26.5063C54.5062 25.578 54.1375 24.6878 53.4811 24.0314C52.8247 23.375 51.9345 23.0063 51.0062 23.0063H44.0062C43.078 23.0063 42.1878 23.375 41.5314 24.0314C40.875 24.6878 40.5062 25.578 40.5062 26.5063V28.653C41.3977 29.1972 42.2103 29.8729 42.944 30.68C44.256 32.088 44.912 34.008 44.912 36.44C44.912 36.6303 44.9072 36.8191 44.8976 37.0063ZM37.0062 27.1963V26.5063C37.0062 25.578 36.6375 24.6878 35.9811 24.0314C35.3247 23.375 34.4345 23.0063 33.5062 23.0063H26.5062C26.462 23.0063 26.4179 23.0071 26.3739 23.0088C26.3486 23.1277 26.336 23.2528 26.336 23.384C26.336 24.056 26.768 24.568 27.632 24.92C28.496 25.24 29.92 25.592 31.904 25.976C33.8315 26.3374 35.5323 26.7442 37.0062 27.1963ZM33.6982 37.001C33.5845 36.4465 33.1465 36.0196 32.384 35.72C31.52 35.368 30.08 34.984 28.064 34.568C26.1401 34.1642 24.4542 33.7428 23.0062 33.3038V33.5063C23.0062 34.4345 23.375 35.3248 24.0314 35.9811C24.6878 36.6375 25.578 37.0063 26.5062 37.0063H33.5062C33.5704 37.0063 33.6344 37.0045 33.6982 37.001Z" fill="white" />
</svg>