<svg width="660" height="528" viewBox="0 0 660 528" fill="none" xmlns="http://www.w3.org/2000/svg">
  <path d="M63.5108 396.537C65.0553 402.925 68.5985 408.654 73.6245 412.89C73.773 412.983 73.9524 413.015 74.1239 412.977C74.2954 412.939 74.4451 412.835 74.5405 412.688C74.631 412.539 74.6606 412.36 74.623 412.19C74.5855 412.019 74.4837 411.87 74.3388 411.772C69.5974 407.739 66.2594 402.304 64.8062 396.252C64.7635 396.085 64.6577 395.941 64.5112 395.851C64.3646 395.761 64.1887 395.731 64.0207 395.768C63.8526 395.805 63.7055 395.906 63.6103 396.049C63.5152 396.193 63.4795 396.368 63.5107 396.537L63.5108 396.537Z" fill="white"/>
  <path d="M57.7174 506.808C55.3623 507.027 52.9897 506.973 50.6473 506.644C45.3049 505.898 40.2357 503.822 35.906 500.604C33.8898 498.345 31.9856 495.996 30.1935 493.556C30.3249 493.546 30.4568 493.569 30.5762 493.625C30.6956 493.681 30.7984 493.767 30.8744 493.875C32.247 495.655 33.8212 497.271 35.5656 498.69C41.7815 503.755 49.7304 506.192 57.7174 505.481C57.8085 505.466 57.9019 505.475 57.9886 505.507C58.0752 505.539 58.1523 505.592 58.2124 505.662C58.2871 505.764 58.3339 505.884 58.3481 506.009C58.3623 506.134 58.3434 506.261 58.2934 506.377C58.2433 506.493 58.1638 506.593 58.0628 506.669C57.9617 506.745 57.8427 506.792 57.7174 506.808V506.808Z" fill="white"/>
  <path d="M165.861 352.249C167.157 351.361 168.242 350.2 169.04 348.847C169.838 347.494 170.329 345.983 170.48 344.42C170.631 342.857 170.437 341.279 169.912 339.799C169.388 338.319 168.545 336.972 167.443 335.852L171.61 242.834L150.395 245.216L151.627 336.2C149.87 338.176 148.898 340.727 148.896 343.372C148.894 346.016 149.862 348.569 151.616 350.547C153.371 352.525 155.79 353.791 158.415 354.105C161.041 354.418 163.69 353.758 165.861 352.249V352.249Z" fill="#FFB8B8"/>
  <path d="M204.564 509.708L216.639 511.83L228.573 466.267L212.752 463.134L204.564 509.708Z" fill="#FFB8B8"/>
  <path d="M237.954 527.136L200.005 520.465L202.583 505.803L225.87 509.897C227.795 510.235 229.635 510.95 231.284 511.999C232.934 513.049 234.36 514.413 235.482 516.014C236.604 517.614 237.4 519.421 237.824 521.329C238.249 523.238 238.293 525.211 237.954 527.136V527.136V527.136Z" fill="#2F2E41"/>
  <path d="M171.422 515.752L183.682 515.751L189.514 468.463L171.42 468.464L171.422 515.752Z" fill="#FFB8B8"/>
  <path d="M207.326 527.135L168.795 527.136L168.794 512.249L192.438 512.248C196.387 512.248 200.173 513.816 202.965 516.608C205.757 519.4 207.326 523.186 207.326 527.135V527.135L207.326 527.135Z" fill="#2F2E41"/>
  <path d="M223.574 502.802C223.383 502.803 223.192 502.791 223.002 502.769L208.572 501.581C207.915 501.504 207.281 501.294 206.707 500.964C206.134 500.634 205.634 500.191 205.237 499.661C204.84 499.132 204.555 498.528 204.399 497.885C204.243 497.242 204.219 496.574 204.329 495.922L217.654 421.241L208.651 373.767C208.577 373.381 208.367 373.035 208.058 372.792C207.75 372.549 207.364 372.426 206.971 372.446C206.579 372.465 206.207 372.626 205.924 372.898C205.641 373.17 205.466 373.536 205.432 373.927L194.176 500.554C194.052 501.825 193.44 502.998 192.468 503.826C191.496 504.654 190.24 505.072 188.966 504.992L175.371 504.485C174.18 504.401 173.061 503.883 172.225 503.03C171.389 502.177 170.895 501.047 170.835 499.854L169.921 348.087L240.402 339.277L245.326 415.317L245.306 415.398L228.316 499.073C228.057 500.136 227.449 501.081 226.589 501.757C225.73 502.433 224.668 502.801 223.574 502.802V502.802Z" fill="#2F2E41"/>
  <path d="M193.159 182.558C206.723 182.558 217.72 171.561 217.72 157.997C217.72 144.432 206.723 133.436 193.159 133.436C179.594 133.436 168.598 144.432 168.598 157.997C168.598 171.561 179.594 182.558 193.159 182.558Z" fill="#FFB8B8"/>
  <path d="M216.301 359.179C212.46 359.202 208.692 358.124 205.444 356.073C193.547 348.637 180.034 351.593 173.037 354.016C172.343 354.259 171.603 354.342 170.872 354.259C170.141 354.176 169.439 353.928 168.817 353.535C168.202 353.149 167.683 352.63 167.298 352.014C166.912 351.399 166.671 350.705 166.593 349.984L153.87 236.358C151.738 217.321 163.206 199.422 181.138 193.799C181.811 193.587 182.496 193.387 183.193 193.197C188.773 191.684 194.617 191.413 200.314 192.401C206.01 193.39 211.421 195.615 216.165 198.92C220.997 202.261 225.038 206.621 228.004 211.692C230.97 216.763 232.789 222.423 233.332 228.273L244.042 342.66C244.115 343.401 244.015 344.148 243.75 344.843C243.485 345.539 243.062 346.163 242.515 346.667C238.76 350.14 227.863 359.178 216.301 359.179Z" fill="#6C63FF"/>
  <path d="M177.56 260.724L148.857 257.568C148.04 257.479 147.252 257.214 146.547 256.792C145.842 256.37 145.236 255.802 144.77 255.125C144.305 254.448 143.991 253.678 143.849 252.869C143.708 252.06 143.743 251.229 143.951 250.435L151.257 222.588C151.74 218.412 153.86 214.599 157.151 211.983C160.441 209.367 164.635 208.163 168.812 208.635C172.989 209.107 176.809 211.215 179.434 214.499C182.058 217.783 183.274 221.973 182.814 226.151L183.898 254.827C183.929 255.648 183.783 256.466 183.469 257.225C183.155 257.984 182.681 258.667 182.08 259.227C181.478 259.786 180.763 260.21 179.983 260.468C179.203 260.727 178.377 260.814 177.56 260.724V260.724Z" fill="#6C63FF"/>
  <path d="M243.927 348.266C245.106 347.228 246.043 345.945 246.672 344.506C247.302 343.067 247.608 341.507 247.569 339.937C247.53 338.367 247.148 336.825 246.449 335.419C245.749 334.012 244.75 332.777 243.522 331.798L236.449 238.956L215.66 243.636L227.863 334.05C226.356 336.223 225.699 338.873 226.016 341.498C226.332 344.123 227.601 346.541 229.581 348.293C231.561 350.045 234.115 351.01 236.759 351.005C239.403 351 241.954 350.026 243.927 348.266V348.266Z" fill="#FFB8B8"/>
  <path d="M207.69 254.888C207.088 254.329 206.614 253.646 206.301 252.887C205.987 252.127 205.84 251.309 205.872 250.488L206.956 221.813C206.496 217.634 207.712 213.444 210.336 210.161C212.961 206.877 216.781 204.768 220.958 204.296C225.135 203.825 229.329 205.029 232.619 207.644C235.91 210.26 238.029 214.074 238.513 218.25L245.819 246.096C246.027 246.891 246.062 247.721 245.921 248.53C245.779 249.34 245.465 250.109 244.999 250.786C244.534 251.463 243.928 252.032 243.223 252.454C242.518 252.875 241.73 253.14 240.913 253.23L212.21 256.386C211.393 256.476 210.567 256.389 209.786 256.13C209.006 255.872 208.291 255.448 207.69 254.888V254.888Z" fill="#6C63FF"/>
  <path d="M191.698 183.483C191.261 183.483 190.826 183.432 190.401 183.332L190.276 183.301C168.682 179.998 163.91 167.49 162.862 162.266C161.778 156.858 163.013 151.638 165.802 149.61C164.281 144.808 164.525 140.549 166.53 136.948C170.025 130.668 177.611 128.545 178.628 128.285C184.686 123.816 191.934 126.799 193.253 127.404C204.972 123.068 209.451 126.677 210.261 127.483C215.499 128.424 218.692 130.447 219.752 133.499C221.743 139.23 215.447 146.359 215.178 146.659L215.038 146.815L205.658 147.262C204.768 147.304 203.897 147.533 203.101 147.934C202.305 148.335 201.602 148.899 201.038 149.589C200.474 150.279 200.062 151.079 199.827 151.939C199.592 152.799 199.541 153.698 199.677 154.579V154.579C199.93 155.715 200.251 156.836 200.637 157.934C202.239 162.941 203.439 167.217 201.891 168.843C201.54 169.158 201.108 169.368 200.644 169.448C200.18 169.529 199.702 169.477 199.266 169.298C197.799 168.907 196.804 168.989 196.307 169.543C195.537 170.402 195.772 172.578 196.97 175.669C197.345 176.646 197.446 177.707 197.262 178.738C197.078 179.769 196.615 180.729 195.924 181.516C195.403 182.13 194.756 182.623 194.027 182.963C193.297 183.303 192.503 183.48 191.698 183.483Z" fill="#2F2E41"/>
  <path d="M382 528H1C0.734784 528 0.480429 527.895 0.292892 527.707C0.105356 527.52 0 527.265 0 527C0 526.735 0.105356 526.48 0.292892 526.293C0.480429 526.105 0.734784 526 1 526H382C382.265 526 382.52 526.105 382.707 526.293C382.895 526.48 383 526.735 383 527C383 527.265 382.895 527.52 382.707 527.707C382.52 527.895 382.265 528 382 528Z" fill="#3F3D56"/>
  <path d="M345 22.5C345 16.5326 347.371 10.8097 351.59 6.5901C355.81 2.37053 361.533 0 367.5 0L412.5 0C418.467 0 424.19 2.37053 428.41 6.5901C432.629 10.8097 435 16.5326 435 22.5V67.5C435 73.4674 432.629 79.1903 428.41 83.4099C424.19 87.6295 418.467 90 412.5 90H367.5C361.533 90 355.81 87.6295 351.59 83.4099C347.371 79.1903 345 73.4674 345 67.5V22.5ZM345 135C345 129.033 347.371 123.31 351.59 119.09C355.81 114.871 361.533 112.5 367.5 112.5H412.5C418.467 112.5 424.19 114.871 428.41 119.09C432.629 123.31 435 129.033 435 135V180C435 185.967 432.629 191.69 428.41 195.91C424.19 200.129 418.467 202.5 412.5 202.5H367.5C361.533 202.5 355.81 200.129 351.59 195.91C347.371 191.69 345 185.967 345 180V135ZM457.5 135C457.5 129.033 459.871 123.31 464.09 119.09C468.31 114.871 474.033 112.5 480 112.5H525C530.967 112.5 536.69 114.871 540.91 119.09C545.129 123.31 547.5 129.033 547.5 135V180C547.5 185.967 545.129 191.69 540.91 195.91C536.69 200.129 530.967 202.5 525 202.5H480C474.033 202.5 468.31 200.129 464.09 195.91C459.871 191.69 457.5 185.967 457.5 180V135ZM570 135C570 129.033 572.371 123.31 576.59 119.09C580.81 114.871 586.533 112.5 592.5 112.5L637.5 112.5C643.467 112.5 649.19 114.871 653.41 119.09C657.629 123.31 660 129.033 660 135V180C660 185.967 657.629 191.69 653.41 195.91C649.19 200.129 643.467 202.5 637.5 202.5H592.5C586.533 202.5 580.81 200.129 576.59 195.91C572.371 191.69 570 185.967 570 180V135ZM345 247.5C345 241.533 347.371 235.81 351.59 231.59C355.81 227.371 361.533 225 367.5 225H412.5C418.467 225 424.19 227.371 428.41 231.59C432.629 235.81 435 241.533 435 247.5V292.5C435 298.467 432.629 304.19 428.41 308.41C424.19 312.629 418.467 315 412.5 315H367.5C361.533 315 355.81 312.629 351.59 308.41C347.371 304.19 345 298.467 345 292.5V247.5ZM457.5 247.5C457.5 241.533 459.871 235.81 464.09 231.59C468.31 227.371 474.033 225 480 225H525C530.967 225 536.69 227.371 540.91 231.59C545.129 235.81 547.5 241.533 547.5 247.5V292.5C547.5 298.467 545.129 304.19 540.91 308.41C536.69 312.629 530.967 315 525 315H480C474.033 315 468.31 312.629 464.09 308.41C459.871 304.19 457.5 298.467 457.5 292.5V247.5ZM570 247.5C570 241.533 572.371 235.81 576.59 231.59C580.81 227.371 586.533 225 592.5 225H637.5C643.467 225 649.19 227.371 653.41 231.59C657.629 235.81 660 241.533 660 247.5V292.5C660 298.467 657.629 304.19 653.41 308.41C649.19 312.629 643.467 315 637.5 315H592.5C586.533 315 580.81 312.629 576.59 308.41C572.371 304.19 570 298.467 570 292.5V247.5Z" fill="#E4E4E4"/>
  <rect x="374" y="29" width="32" height="32" rx="16" fill="black" fill-opacity="0.3"/>
  <path d="M457.5 22.5C457.5 16.5326 459.871 10.8097 464.09 6.5901C468.31 2.37053 474.033 0 480 0L525 0C530.967 0 536.69 2.37053 540.91 6.5901C545.129 10.8097 547.5 16.5326 547.5 22.5V67.5C547.5 73.4674 545.129 79.1903 540.91 83.4099C536.69 87.6295 530.967 90 525 90H480C474.033 90 468.31 87.6295 464.09 83.4099C459.871 79.1903 457.5 73.4674 457.5 67.5V22.5ZM570 22.5C570 16.5326 572.371 10.8097 576.59 6.5901C580.81 2.37053 586.533 0 592.5 0L637.5 0C643.467 0 649.19 2.37053 653.41 6.5901C657.629 10.8097 660 16.5326 660 22.5V67.5C660 73.4674 657.629 79.1903 653.41 83.4099C649.19 87.6295 643.467 90 637.5 90H592.5C586.533 90 580.81 87.6295 576.59 83.4099C572.371 79.1903 570 73.4674 570 67.5V22.5Z" fill="#6C63FF"/>
  <path d="M492.984 67C492.876 67 492.767 66.9974 492.658 66.9922C491.698 66.9465 490.759 66.6965 489.906 66.2594C489.053 65.8222 488.306 65.2083 487.716 64.4596L478.403 52.6493C477.318 51.2709 476.832 49.5246 477.052 47.7933C477.271 46.0621 478.178 44.4874 479.573 43.4146L479.908 43.1574C481.305 42.0878 483.076 41.6087 484.831 41.825C486.587 42.0414 488.183 42.9355 489.271 44.3114C489.796 44.9771 490.461 45.523 491.219 45.9119C491.978 46.3007 492.813 46.5233 493.667 46.5644C494.521 46.6054 495.374 46.464 496.167 46.1498C496.961 45.8356 497.676 45.3559 498.264 44.7438L517.175 25.055C517.778 24.4276 518.5 23.9234 519.3 23.5712C520.1 23.219 520.963 23.0257 521.839 23.0024C522.715 22.9791 523.587 23.1261 524.405 23.4352C525.223 23.7443 525.972 24.2094 526.608 24.8038L526.917 25.0923C528.201 26.2926 528.95 27.9471 528.998 29.6917C529.045 31.4364 528.388 33.1283 527.171 34.3952L497.827 64.9449C497.203 65.5942 496.453 66.1114 495.62 66.4647C494.788 66.8181 493.891 67.0002 492.984 67V67Z" fill="white"/>
  <path d="M605.984 67C605.876 67 605.767 66.9974 605.658 66.9922C604.698 66.9465 603.759 66.6965 602.906 66.2594C602.053 65.8222 601.306 65.2083 600.716 64.4596L591.403 52.6493C590.318 51.2709 589.832 49.5246 590.052 47.7933C590.271 46.0621 591.178 44.4874 592.573 43.4146L592.908 43.1574C594.305 42.0878 596.076 41.6087 597.831 41.825C599.587 42.0414 601.183 42.9355 602.271 44.3114C602.796 44.9771 603.461 45.523 604.219 45.9119C604.978 46.3007 605.813 46.5233 606.667 46.5644C607.521 46.6054 608.374 46.464 609.167 46.1498C609.961 45.8356 610.676 45.3559 611.264 44.7438L630.175 25.055C630.778 24.4276 631.5 23.9234 632.3 23.5712C633.1 23.219 633.963 23.0257 634.839 23.0024C635.715 22.9791 636.587 23.1261 637.405 23.4352C638.223 23.7443 638.972 24.2094 639.608 24.8038L639.917 25.0923C641.201 26.2926 641.95 27.9471 641.998 29.6917C642.045 31.4364 641.388 33.1283 640.171 34.3952L610.827 64.9449C610.203 65.5942 609.453 66.1114 608.62 66.4647C607.788 66.8181 606.891 67.0002 605.984 67V67Z" fill="white"/>
  <rect x="374" y="142" width="32" height="32" rx="16" fill="black" fill-opacity="0.3"/>
  <rect x="487" y="142" width="32" height="32" rx="16" fill="black" fill-opacity="0.3"/>
  <rect x="600" y="142" width="32" height="32" rx="16" fill="black" fill-opacity="0.3"/>
  <rect x="600" y="256" width="32" height="32" rx="16" fill="black" fill-opacity="0.3"/>
  <rect x="487" y="256" width="32" height="32" rx="16" fill="black" fill-opacity="0.3"/>
  <rect x="374" y="256" width="32" height="32" rx="16" fill="black" fill-opacity="0.3"/>
  </svg>
  