<svg width="525" height="529" viewBox="0 0 525 529" fill="none" xmlns="http://www.w3.org/2000/svg">
  <rect width="525" height="529" rx="32" fill="#2A2A2A"/>
  <rect x="19.3143" y="18.7257" width="37.4582" height="37.4513" rx="16" fill="#414141"/>
  <rect x="75.5016" y="18.7256" width="37.4582" height="37.4513" rx="16" fill="#414141"/>
  <rect x="131.689" y="18.7256" width="37.4582" height="37.4513" rx="16" fill="#414141"/>
  <rect x="187.876" y="18.7256" width="37.4582" height="37.4513" rx="16" fill="#414141"/>
  <rect x="244.063" y="18.7256" width="37.4582" height="37.4513" rx="16" fill="#67378D"/>
  <rect x="300.251" y="18.7256" width="37.4582" height="37.4513" rx="16" fill="#414141"/>
  <rect x="356.438" y="18.7256" width="37.4582" height="37.4513" rx="16" fill="#414141"/>
  <rect x="412.625" y="18.7256" width="37.4582" height="37.4513" rx="16" fill="#414141"/>
  <rect x="468.812" y="18.7256" width="37.4582" height="37.4513" rx="16" fill="#414141"/>
  <rect x="19.3143" y="74.9026" width="37.4582" height="37.4513" rx="16" fill="#414141"/>
  <rect x="75.5016" y="74.9026" width="37.4582" height="37.4513" rx="16" fill="#414141"/>
  <rect x="131.689" y="74.9026" width="37.4582" height="37.4513" rx="16" fill="#67378D"/>
  <rect x="187.876" y="74.9026" width="37.4582" height="37.4513" rx="16" fill="#67378D"/>
  <rect x="244.063" y="74.9026" width="37.4582" height="37.4513" rx="16" fill="#414141"/>
  <rect x="300.251" y="74.9026" width="37.4582" height="37.4513" rx="16" fill="#414141"/>
  <rect x="356.438" y="74.9026" width="37.4582" height="37.4513" rx="16" fill="#414141"/>
  <rect x="412.625" y="74.9026" width="37.4582" height="37.4513" rx="16" fill="#414141"/>
  <rect x="468.812" y="74.9026" width="37.4582" height="37.4513" rx="16" fill="#414141"/>
  <rect x="19.3143" y="131.08"  width="37.4582" height="37.4513" rx="16" fill="#414141"/>
  <rect x="75.5016" y="131.08"  width="37.4582" height="37.4513" rx="16" fill="#414141"/>
  <rect x="131.689" y="131.08"  width="37.4582" height="37.4513" rx="16" fill="#67378D"/>
  <rect x="187.876" y="131.08"  width="37.4582" height="37.4513" rx="16" fill="#414141"/>
  <rect x="244.063" y="131.08"  width="37.4582" height="37.4513" rx="16" fill="#414141"/>
  <rect x="300.251" y="131.08"  width="37.4582" height="37.4513" rx="16" fill="#414141"/>
  <rect x="356.438" y="131.08"  width="37.4582" height="37.4513" rx="16" fill="#414141"/>
  <rect x="412.625" y="131.08"  width="37.4582" height="37.4513" rx="16" fill="#414141"/>
  <rect x="468.812" y="131.08"  width="37.4582" height="37.4513" rx="16" fill="#414141"/>
  <rect x="19.3143" y="187.257" width="37.4582" height="37.4513" rx="16" fill="#414141"/>
  <rect x="75.5016" y="187.257" width="37.4582" height="37.4513" rx="16" fill="#414141"/>
  <rect x="131.689" y="187.257" width="37.4582" height="37.4513" rx="16" fill="#414141"/>
  <rect x="187.876" y="187.257" width="37.4582" height="37.4513" rx="16" fill="#414141"/>
  <rect x="244.063" y="187.257" width="37.4582" height="37.4513" rx="16" fill="#414141"/>
  <rect x="300.251" y="187.257" width="37.4582" height="37.4513" rx="16" fill="#414141"/>
  <rect x="356.438" y="187.257" width="37.4582" height="37.4513" rx="16" fill="#414141"/>
  <rect x="412.625" y="187.257" width="37.4582" height="37.4513" rx="16" fill="#414141"/>
  <rect x="468.812" y="187.257" width="37.4582" height="37.4513" rx="16" fill="#414141"/>
  <rect x="19.3143" y="243.434" width="37.4582" height="37.4513" rx="16" fill="#414141"/>
  <rect x="75.5016" y="243.434" width="37.4582" height="37.4513" rx="16" fill="#414141"/>
  <rect x="131.689" y="243.434" width="37.4582" height="37.4513" rx="16" fill="#414141"/>
  <rect x="187.876" y="243.434" width="37.4582" height="37.4513" rx="16" fill="#414141"/>
  <rect x="244.063" y="243.434" width="37.4582" height="37.4513" rx="16" fill="#414141"/>
  <rect x="300.251" y="243.434" width="37.4582" height="37.4513" rx="16" fill="#414141"/>
  <rect x="356.438" y="243.434" width="37.4582" height="37.4513" rx="16" fill="#414141"/>
  <rect x="412.625" y="243.434" width="37.4582" height="37.4513" rx="16" fill="#414141"/>
  <rect x="468.812" y="243.434" width="37.4582" height="37.4513" rx="16" fill="#414141"/>
  <rect x="19.3143" y="299.611" width="37.4582" height="37.4513" rx="16" fill="#414141"/>
  <rect x="75.5016" y="299.611" width="37.4582" height="37.4513" rx="16" fill="#414141"/>
  <rect x="131.689" y="299.611" width="37.4582" height="37.4513" rx="16" fill="#414141"/>
  <rect x="187.876" y="299.611" width="37.4582" height="37.4513" rx="16" fill="#414141"/>
  <rect x="244.063" y="299.611" width="37.4582" height="37.4513" rx="16" fill="#414141"/>
  <rect x="300.251" y="299.611" width="37.4582" height="37.4513" rx="16" fill="#67378D"/>
  <rect x="356.438" y="299.611" width="37.4582" height="37.4513" rx="16" fill="#67378D"/>
  <rect x="412.625" y="299.611" width="37.4582" height="37.4513" rx="16" fill="#67378D"/>
  <rect x="468.812" y="299.611" width="37.4582" height="37.4513" rx="16" fill="#414141"/>
  <rect x="19.3143" y="359.299" width="37.4582" height="37.4513" rx="16" fill="#414141"/>
  <rect x="75.5016" y="359.299" width="37.4582" height="37.4514" rx="16" fill="#414141"/>
  <rect x="131.689" y="359.299" width="37.4582" height="37.4514" rx="16" fill="#414141"/>
  <rect x="187.876" y="359.299" width="37.4582" height="37.4514" rx="16" fill="#414141"/>
  <rect x="244.063" y="359.299" width="37.4582" height="37.4514" rx="16" fill="#414141"/>
  <rect x="300.251" y="359.299" width="37.4582" height="37.4514" rx="16" fill="#414141"/>
  <rect x="356.438" y="359.299" width="37.4582" height="37.4514" rx="16" fill="#67378D"/>
  <rect x="412.625" y="359.299" width="37.4582" height="37.4514" rx="16" fill="#414141"/>
  <rect x="468.812" y="359.299" width="37.4582" height="37.4514" rx="16" fill="#414141"/>
  <rect x="19.3143" y="415.476" width="37.4582" height="37.4513" rx="16" fill="#414141"/>
  <rect x="75.5016" y="415.476" width="37.4582" height="37.4513" rx="16" fill="#67378D"/>
  <rect x="131.689" y="415.476" width="37.4582" height="37.4513" rx="16" fill="#414141"/>
  <rect x="187.876" y="415.476" width="37.4582" height="37.4513" rx="16" fill="#414141"/>
  <rect x="244.063" y="415.476" width="37.4582" height="37.4513" rx="16" fill="#414141"/>
  <rect x="300.251" y="415.476" width="37.4582" height="37.4513" rx="16" fill="#414141"/>
  <rect x="356.438" y="415.476" width="37.4582" height="37.4513" rx="16" fill="#414141"/>
  <rect x="412.625" y="415.476" width="37.4582" height="37.4513" rx="16" fill="#414141"/>
  <rect x="468.812" y="415.476" width="37.4582" height="37.4513" rx="16" fill="#414141"/>
  <rect x="19.3143" y="471.653" width="37.4582" height="37.4513" rx="16" fill="#414141"/>
  <rect x="75.5016" y="471.653" width="37.4582" height="37.4514" rx="16" fill="#414141"/>
  <rect x="131.689" y="471.653" width="37.4582" height="37.4514" rx="16" fill="#67378D"/>
  <rect x="187.876" y="471.653" width="37.4582" height="37.4514" rx="16" fill="#414141"/>
  <rect x="244.063" y="471.653" width="37.4582" height="37.4514" rx="16" fill="#414141"/>
  <rect x="300.251" y="471.653" width="37.4582" height="37.4514" rx="16" fill="#414141"/>
  <rect x="356.438" y="471.653" width="37.4582" height="37.4514" rx="16" fill="#414141"/>
  <rect x="412.625" y="471.653" width="37.4582" height="37.4514" rx="16" fill="#414141"/>
  <rect x="468.812" y="471.653" width="37.4582" height="37.4514" rx="16" fill="#414141"/>
</svg>